# xmcd
#
# Track frame offsets:
#	150
#	21790
#	43253
#	62812
#	82239
#	104965
#	121063
#	147201
#	163774
#	187100
#	206697
#	225415
#	243513
#	259559
#	277126
#
# Disc length: 3992 seconds
#
# Revision: 0
# Processed by: cddbd v1.5.2PL0 Copyright (c) Steve Scherf et al.
# Submitted via: audiograbber 1.83.01
#
DISCID=e40f960f
DTITLE=Chartbuster Karaoke - Essential 4 Disk 29
DYEAR=1900
DGENRE=Karaoke
TTITLE0=Third Day - Come Together
TTITLE1=Sherrie Austin - Streets Of Heaven
TTITLE2=Third Day - You Are So Good To Me
TTITLE3=Rachael Lampa - Blessed
TTITLE4=DC Talk - Consume Me
TTITLE5=Nichole Nordeman - Holy
TTITLE6=Michael W. Smith - Let It Rain
TTITLE7=Jacy Velasquez - You're My God
TTITLE8=4 Him - For Future Generations
TTITLE9=Janna Long - Greater Is He
TTITLE10=Big Daddy - Weave In Christ
TTITLE11=Paul McCartney - Wonderful Christmastime
TTITLE12=Ray Stevens - Santa Claus Is Watching
TTITLE13=Bruce Springsteen - Santa Claus Is Coming To Town
TTITLE14=Newsong - The Christmas Shoes
EXTD=
EXTT0=
EXTT1=
EXTT2=
EXTT3=
EXTT4=
EXTT5=
EXTT6=
EXTT7=
EXTT8=
EXTT9=
EXTT10=
EXTT11=
EXTT12=
EXTT13=
EXTT14=
PLAYORDER=
